# xmcd
#
# Track frame offsets: 
#        150
#        24457
#        41806
#        59604
#        89482
#        107486
#        130587
#        146661
#
# Disc length: 2287 seconds
#
# Revision: 0
# Processed by: cddbd v1.5.2PL0 Copyright (c) Steve Scherf et al.
# Submitted via: ExactAudioCopy v1.0b1
#
DISCID=6c08ed08
DTITLE=Hobo Blues Band - Blues az esőben
DYEAR=1989
DGENRE=Blues
TTITLE0=45-ös Blues
TTITLE1=Hosszú lábú asszony
TTITLE2=Operett
TTITLE3=Másik Magyarország
TTITLE4=Rohadt rock and roll
TTITLE5=3.20-as blues
TTITLE6=Enyém, tiéd, miénk
TTITLE7=Közép-európai hobo blues II.
EXTD=
EXTT0=
EXTT1=
EXTT2=
EXTT3=
EXTT4=
EXTT5=
EXTT6=
EXTT7=
PLAYORDER=
